<mxfile host="Electron" agent="Mozilla/5.0 (Windows NT 10.0; Win64; x64) AppleWebKit/537.36 (KHTML, like Gecko) draw.io/26.2.15 Chrome/134.0.6998.205 Electron/35.2.1 Safari/537.36" version="26.2.15">
  <diagram name="Page-1" id="c7558073-3199-34d8-9f00-42111426c3f3">
    <mxGraphModel dx="1188" dy="716" grid="1" gridSize="10" guides="1" tooltips="1" connect="1" arrows="1" fold="1" page="1" pageScale="1" pageWidth="826" pageHeight="1169" background="none" math="0" shadow="0">
      <root>
        <mxCell id="0" />
        <mxCell id="1" parent="0" />
        <mxCell id="AYtACJ_0qeJwEH7vG1DV-75" style="edgeStyle=orthogonalEdgeStyle;rounded=0;orthogonalLoop=1;jettySize=auto;html=1;exitX=1;exitY=0.5;exitDx=0;exitDy=0;entryX=0;entryY=0.5;entryDx=0;entryDy=0;" parent="1" source="TXkxL3hwGatlC5A8vi9H-124" target="AYtACJ_0qeJwEH7vG1DV-5" edge="1">
          <mxGeometry relative="1" as="geometry" />
        </mxCell>
        <mxCell id="TXkxL3hwGatlC5A8vi9H-124" value="en" style="triangle;whiteSpace=wrap;html=1;fillColor=#f5f5f5;fontColor=#333333;strokeColor=#666666;fontFamily=Lucida Console;fontSize=8;" parent="1" vertex="1">
          <mxGeometry x="100" y="380" width="40" height="40" as="geometry" />
        </mxCell>
        <mxCell id="AYtACJ_0qeJwEH7vG1DV-70" style="edgeStyle=orthogonalEdgeStyle;rounded=0;orthogonalLoop=1;jettySize=auto;html=1;exitX=1;exitY=0.5;exitDx=0;exitDy=0;entryX=0;entryY=0.5;entryDx=0;entryDy=0;entryPerimeter=0;" parent="1" source="TXkxL3hwGatlC5A8vi9H-125" target="TXkxL3hwGatlC5A8vi9H-101" edge="1">
          <mxGeometry relative="1" as="geometry" />
        </mxCell>
        <mxCell id="TXkxL3hwGatlC5A8vi9H-125" value="rst" style="triangle;whiteSpace=wrap;html=1;fillColor=#f5f5f5;fontColor=#333333;strokeColor=#666666;fontFamily=Lucida Console;fontSize=8;" parent="1" vertex="1">
          <mxGeometry x="100" y="430" width="40" height="40" as="geometry" />
        </mxCell>
        <mxCell id="TXkxL3hwGatlC5A8vi9H-126" value="clk" style="triangle;whiteSpace=wrap;html=1;fillColor=#f5f5f5;fontColor=#333333;strokeColor=#666666;fontFamily=Lucida Console;fontSize=8;" parent="1" vertex="1">
          <mxGeometry x="100" y="480" width="40" height="40" as="geometry" />
        </mxCell>
        <mxCell id="AYtACJ_0qeJwEH7vG1DV-20" value="" style="group" parent="1" vertex="1" connectable="0">
          <mxGeometry x="200" y="400" width="120" height="100" as="geometry" />
        </mxCell>
        <mxCell id="TXkxL3hwGatlC5A8vi9H-101" value="&lt;p&gt;&lt;font style=&quot;font-size: 12px; color: rgb(255, 255, 255);&quot;&gt;PC&lt;/font&gt;&lt;/p&gt;" style="rounded=1;whiteSpace=wrap;html=1;flipH=0;fillColor=#e3c800;strokeColor=#B09500;fontFamily=Lucida Console;fontSize=8;fontColor=#000000;" parent="AYtACJ_0qeJwEH7vG1DV-20" vertex="1">
          <mxGeometry width="120" height="100" as="geometry" />
        </mxCell>
        <mxCell id="AYtACJ_0qeJwEH7vG1DV-5" value="en" style="text;html=1;align=left;verticalAlign=middle;whiteSpace=wrap;rounded=0;fontFamily=Lucida Console;fontSize=8;" parent="AYtACJ_0qeJwEH7vG1DV-20" vertex="1">
          <mxGeometry y="18.75" width="33.33333333333333" height="12.5" as="geometry" />
        </mxCell>
        <mxCell id="AYtACJ_0qeJwEH7vG1DV-6" value="rst" style="text;html=1;align=left;verticalAlign=middle;whiteSpace=wrap;rounded=0;fontFamily=Lucida Console;fontSize=8;" parent="AYtACJ_0qeJwEH7vG1DV-20" vertex="1">
          <mxGeometry y="43.75" width="33.33333333333333" height="12.5" as="geometry" />
        </mxCell>
        <mxCell id="AYtACJ_0qeJwEH7vG1DV-7" value="clk" style="text;html=1;align=left;verticalAlign=middle;whiteSpace=wrap;rounded=0;fontFamily=Lucida Console;fontSize=8;" parent="AYtACJ_0qeJwEH7vG1DV-20" vertex="1">
          <mxGeometry y="68.75" width="33.33333333333333" height="12.5" as="geometry" />
        </mxCell>
        <mxCell id="AYtACJ_0qeJwEH7vG1DV-15" value="pc_jmp_ALU" style="text;html=1;align=right;verticalAlign=middle;whiteSpace=wrap;rounded=0;fontFamily=Lucida Console;fontSize=8;" parent="AYtACJ_0qeJwEH7vG1DV-20" vertex="1">
          <mxGeometry x="66.66666666666666" y="18.75" width="53.333333333333336" height="12.5" as="geometry" />
        </mxCell>
        <mxCell id="AYtACJ_0qeJwEH7vG1DV-16" value="[1:0]pc_jmp_Decoder" style="text;html=1;align=right;verticalAlign=middle;whiteSpace=wrap;rounded=0;fontFamily=Lucida Console;fontSize=8;" parent="AYtACJ_0qeJwEH7vG1DV-20" vertex="1">
          <mxGeometry x="20.000000000000004" y="31.25" width="100.00000000000001" height="12.5" as="geometry" />
        </mxCell>
        <mxCell id="AYtACJ_0qeJwEH7vG1DV-18" value="[31:0]imm" style="text;html=1;align=right;verticalAlign=middle;whiteSpace=wrap;rounded=0;fontFamily=Lucida Console;fontSize=8;" parent="AYtACJ_0qeJwEH7vG1DV-20" vertex="1">
          <mxGeometry x="53.333333333333336" y="56.25" width="66.66666666666666" height="12.5" as="geometry" />
        </mxCell>
        <mxCell id="AYtACJ_0qeJwEH7vG1DV-19" value="[31:0]pc_out" style="text;html=1;align=right;verticalAlign=middle;whiteSpace=wrap;rounded=0;fontFamily=Lucida Console;fontSize=8;" parent="AYtACJ_0qeJwEH7vG1DV-20" vertex="1">
          <mxGeometry x="53.333333333333336" y="68.75" width="66.66666666666666" height="12.5" as="geometry" />
        </mxCell>
        <mxCell id="AYtACJ_0qeJwEH7vG1DV-42" value="`" style="group;align=left;" parent="1" vertex="1" connectable="0">
          <mxGeometry x="500" y="200" width="110" height="260" as="geometry" />
        </mxCell>
        <mxCell id="TXkxL3hwGatlC5A8vi9H-133" value="&lt;font style=&quot;font-size: 12px;&quot;&gt;D&lt;span style=&quot;background-color: transparent; color: light-dark(rgb(0, 0, 0), rgb(255, 255, 255));&quot;&gt;ecoder&lt;/span&gt;&lt;/font&gt;" style="rounded=1;whiteSpace=wrap;html=1;fillColor=#a20025;strokeColor=#6F0000;fontFamily=Lucida Console;fontSize=8;fontColor=#ffffff;" parent="AYtACJ_0qeJwEH7vG1DV-42" vertex="1">
          <mxGeometry width="110" height="260" as="geometry" />
        </mxCell>
        <mxCell id="AYtACJ_0qeJwEH7vG1DV-31" value="[31:0]instruction" style="text;html=1;align=left;verticalAlign=middle;whiteSpace=wrap;rounded=0;fontFamily=Lucida Console;fontSize=8;" parent="AYtACJ_0qeJwEH7vG1DV-42" vertex="1">
          <mxGeometry y="20" width="87" height="15" as="geometry" />
        </mxCell>
        <mxCell id="AYtACJ_0qeJwEH7vG1DV-32" value="[4&lt;span style=&quot;background-color: transparent; color: light-dark(rgb(0, 0, 0), rgb(255, 255, 255));&quot;&gt;:0]rd&lt;/span&gt;" style="text;html=1;align=right;verticalAlign=middle;whiteSpace=wrap;rounded=0;fontFamily=Lucida Console;fontSize=8;" parent="AYtACJ_0qeJwEH7vG1DV-42" vertex="1">
          <mxGeometry x="30" y="65" width="80" height="15" as="geometry" />
        </mxCell>
        <mxCell id="AYtACJ_0qeJwEH7vG1DV-33" value="[4&lt;span style=&quot;color: light-dark(rgb(0, 0, 0), rgb(255, 255, 255)); background-color: transparent;&quot;&gt;:0]&lt;/span&gt;rs1" style="text;html=1;align=right;verticalAlign=middle;whiteSpace=wrap;rounded=0;fontFamily=Lucida Console;fontSize=8;" parent="AYtACJ_0qeJwEH7vG1DV-42" vertex="1">
          <mxGeometry x="30" y="165" width="80" height="15" as="geometry" />
        </mxCell>
        <mxCell id="AYtACJ_0qeJwEH7vG1DV-34" value="[4&lt;span style=&quot;color: light-dark(rgb(0, 0, 0), rgb(255, 255, 255)); background-color: transparent;&quot;&gt;:0]&lt;/span&gt;rs2" style="text;html=1;align=right;verticalAlign=middle;whiteSpace=wrap;rounded=0;fontFamily=Lucida Console;fontSize=8;" parent="AYtACJ_0qeJwEH7vG1DV-42" vertex="1">
          <mxGeometry x="30" y="195" width="80" height="15" as="geometry" />
        </mxCell>
        <mxCell id="AYtACJ_0qeJwEH7vG1DV-35" value="[31&lt;span style=&quot;background-color: transparent; color: light-dark(rgb(0, 0, 0), rgb(255, 255, 255));&quot;&gt;:0]&lt;/span&gt;&lt;span style=&quot;background-color: transparent; color: light-dark(rgb(0, 0, 0), rgb(255, 255, 255));&quot;&gt;imm&lt;/span&gt;" style="text;html=1;align=right;verticalAlign=middle;whiteSpace=wrap;rounded=0;fontFamily=Lucida Console;fontSize=8;" parent="AYtACJ_0qeJwEH7vG1DV-42" vertex="1">
          <mxGeometry x="30" y="210" width="80" height="15" as="geometry" />
        </mxCell>
        <mxCell id="AYtACJ_0qeJwEH7vG1DV-36" value="inst_type" style="text;html=1;align=right;verticalAlign=middle;whiteSpace=wrap;rounded=0;fontFamily=Lucida Console;fontSize=8;" parent="AYtACJ_0qeJwEH7vG1DV-42" vertex="1">
          <mxGeometry x="30" y="35" width="80" height="15" as="geometry" />
        </mxCell>
        <mxCell id="AYtACJ_0qeJwEH7vG1DV-37" value="rd_en1" style="text;html=1;align=right;verticalAlign=middle;whiteSpace=wrap;rounded=0;fontFamily=Lucida Console;fontSize=8;" parent="AYtACJ_0qeJwEH7vG1DV-42" vertex="1">
          <mxGeometry x="30" y="150" width="80" height="15" as="geometry" />
        </mxCell>
        <mxCell id="AYtACJ_0qeJwEH7vG1DV-38" value="rd_en2" style="text;html=1;align=right;verticalAlign=middle;whiteSpace=wrap;rounded=0;fontFamily=Lucida Console;fontSize=8;" parent="AYtACJ_0qeJwEH7vG1DV-42" vertex="1">
          <mxGeometry x="30" y="180" width="80" height="15" as="geometry" />
        </mxCell>
        <mxCell id="AYtACJ_0qeJwEH7vG1DV-39" value="[2:0]wr_en" style="text;html=1;align=right;verticalAlign=middle;whiteSpace=wrap;rounded=0;fontFamily=Lucida Console;fontSize=8;" parent="AYtACJ_0qeJwEH7vG1DV-42" vertex="1">
          <mxGeometry x="30" y="50" width="80" height="15" as="geometry" />
        </mxCell>
        <mxCell id="AYtACJ_0qeJwEH7vG1DV-40" value="ALU_func" style="text;html=1;align=left;verticalAlign=middle;whiteSpace=wrap;rounded=0;fontFamily=Lucida Console;fontSize=8;" parent="AYtACJ_0qeJwEH7vG1DV-42" vertex="1">
          <mxGeometry y="225" width="80" height="15" as="geometry" />
        </mxCell>
        <mxCell id="AYtACJ_0qeJwEH7vG1DV-41" value="[1:0]pc_jmp_Decoder" style="text;html=1;align=right;verticalAlign=middle;whiteSpace=wrap;rounded=0;fontFamily=Lucida Console;fontSize=8;" parent="AYtACJ_0qeJwEH7vG1DV-42" vertex="1">
          <mxGeometry x="30" y="135" width="80" height="15" as="geometry" />
        </mxCell>
        <mxCell id="X0HWTZEBOyA-l1fYGfc3-2" value="data_rd_en" style="text;html=1;align=right;verticalAlign=middle;whiteSpace=wrap;rounded=0;fontFamily=Lucida Console;fontSize=8;" parent="AYtACJ_0qeJwEH7vG1DV-42" vertex="1">
          <mxGeometry x="30" y="95" width="80" height="15" as="geometry" />
        </mxCell>
        <mxCell id="X0HWTZEBOyA-l1fYGfc3-1" value="data_wr_en" style="text;html=1;align=right;verticalAlign=middle;whiteSpace=wrap;rounded=0;fontFamily=Lucida Console;fontSize=8;" parent="AYtACJ_0qeJwEH7vG1DV-42" vertex="1">
          <mxGeometry x="30" y="80" width="80" height="15" as="geometry" />
        </mxCell>
        <mxCell id="AYtACJ_0qeJwEH7vG1DV-58" value="" style="group" parent="1" vertex="1" connectable="0">
          <mxGeometry x="773.17" y="210" width="100" height="240" as="geometry" />
        </mxCell>
        <mxCell id="TXkxL3hwGatlC5A8vi9H-134" value="&lt;font style=&quot;font-size: 12px;&quot;&gt;Register&lt;/font&gt;&lt;div&gt;&lt;font style=&quot;font-size: 12px;&quot;&gt;File&lt;/font&gt;&lt;/div&gt;" style="rounded=1;whiteSpace=wrap;html=1;fillColor=#1ba1e2;strokeColor=#006EAF;fontFamily=Lucida Console;fontSize=8;fontColor=#ffffff;" parent="AYtACJ_0qeJwEH7vG1DV-58" vertex="1">
          <mxGeometry width="100" height="240" as="geometry" />
        </mxCell>
        <mxCell id="AYtACJ_0qeJwEH7vG1DV-43" value="clk" style="text;html=1;align=left;verticalAlign=middle;whiteSpace=wrap;rounded=0;fontFamily=Lucida Console;fontSize=8;" parent="AYtACJ_0qeJwEH7vG1DV-58" vertex="1">
          <mxGeometry y="10" width="80" height="15" as="geometry" />
        </mxCell>
        <mxCell id="AYtACJ_0qeJwEH7vG1DV-44" value="reset" style="text;html=1;align=left;verticalAlign=middle;whiteSpace=wrap;rounded=0;fontFamily=Lucida Console;fontSize=8;" parent="AYtACJ_0qeJwEH7vG1DV-58" vertex="1">
          <mxGeometry y="25" width="80" height="15" as="geometry" />
        </mxCell>
        <mxCell id="AYtACJ_0qeJwEH7vG1DV-45" value="wr_en" style="text;html=1;align=left;verticalAlign=middle;whiteSpace=wrap;rounded=0;fontFamily=Lucida Console;fontSize=8;" parent="AYtACJ_0qeJwEH7vG1DV-58" vertex="1">
          <mxGeometry y="40" width="80" height="15" as="geometry" />
        </mxCell>
        <mxCell id="AYtACJ_0qeJwEH7vG1DV-46" value="[4:0] wr_index" style="text;html=1;align=left;verticalAlign=middle;whiteSpace=wrap;rounded=0;fontFamily=Lucida Console;fontSize=8;" parent="AYtACJ_0qeJwEH7vG1DV-58" vertex="1">
          <mxGeometry y="55" width="80" height="15" as="geometry" />
        </mxCell>
        <mxCell id="AYtACJ_0qeJwEH7vG1DV-47" value="[31:0] wr_data" style="text;html=1;align=right;verticalAlign=middle;whiteSpace=wrap;rounded=0;fontFamily=Lucida Console;fontSize=8;" parent="AYtACJ_0qeJwEH7vG1DV-58" vertex="1">
          <mxGeometry x="20" y="70" width="80" height="15" as="geometry" />
        </mxCell>
        <mxCell id="AYtACJ_0qeJwEH7vG1DV-48" value="rd_en1" style="text;html=1;align=left;verticalAlign=middle;whiteSpace=wrap;rounded=0;fontFamily=Lucida Console;fontSize=8;" parent="AYtACJ_0qeJwEH7vG1DV-58" vertex="1">
          <mxGeometry y="140" width="80" height="15" as="geometry" />
        </mxCell>
        <mxCell id="AYtACJ_0qeJwEH7vG1DV-49" value="[4:0] rd_index1" style="text;html=1;align=left;verticalAlign=middle;whiteSpace=wrap;rounded=0;fontFamily=Lucida Console;fontSize=8;" parent="AYtACJ_0qeJwEH7vG1DV-58" vertex="1">
          <mxGeometry y="155" width="80" height="15" as="geometry" />
        </mxCell>
        <mxCell id="AYtACJ_0qeJwEH7vG1DV-50" value="[31:0] rd_data1" style="text;html=1;align=left;verticalAlign=middle;whiteSpace=wrap;rounded=0;fontFamily=Lucida Console;fontSize=8;" parent="AYtACJ_0qeJwEH7vG1DV-58" vertex="1">
          <mxGeometry y="200" width="80" height="15" as="geometry" />
        </mxCell>
        <mxCell id="AYtACJ_0qeJwEH7vG1DV-55" value="rd_en2" style="text;html=1;align=left;verticalAlign=middle;whiteSpace=wrap;rounded=0;fontFamily=Lucida Console;fontSize=8;" parent="AYtACJ_0qeJwEH7vG1DV-58" vertex="1">
          <mxGeometry y="170" width="80" height="15" as="geometry" />
        </mxCell>
        <mxCell id="AYtACJ_0qeJwEH7vG1DV-56" value="[4:0] rd_index2" style="text;html=1;align=left;verticalAlign=middle;whiteSpace=wrap;rounded=0;fontFamily=Lucida Console;fontSize=8;" parent="AYtACJ_0qeJwEH7vG1DV-58" vertex="1">
          <mxGeometry y="185" width="80" height="15" as="geometry" />
        </mxCell>
        <mxCell id="AYtACJ_0qeJwEH7vG1DV-57" value="[31:0] rd_data2" style="text;html=1;align=left;verticalAlign=middle;whiteSpace=wrap;rounded=0;fontFamily=Lucida Console;fontSize=8;" parent="AYtACJ_0qeJwEH7vG1DV-58" vertex="1">
          <mxGeometry y="215" width="80" height="15" as="geometry" />
        </mxCell>
        <mxCell id="AYtACJ_0qeJwEH7vG1DV-66" value="" style="group" parent="1" vertex="1" connectable="0">
          <mxGeometry x="510" y="560" width="130" height="130" as="geometry" />
        </mxCell>
        <mxCell id="TXkxL3hwGatlC5A8vi9H-136" value="&lt;font style=&quot;font-size: 12px;&quot;&gt;ALU&lt;/font&gt;" style="rounded=1;whiteSpace=wrap;html=1;fillColor=#76608a;strokeColor=#432D57;fontFamily=Lucida Console;fontSize=8;fontColor=#ffffff;" parent="AYtACJ_0qeJwEH7vG1DV-66" vertex="1">
          <mxGeometry width="130" height="130" as="geometry" />
        </mxCell>
        <mxCell id="AYtACJ_0qeJwEH7vG1DV-59" value="[31:0] r1" style="text;html=1;align=right;verticalAlign=middle;whiteSpace=wrap;rounded=0;fontFamily=Lucida Console;fontSize=8;" parent="AYtACJ_0qeJwEH7vG1DV-66" vertex="1">
          <mxGeometry x="50" y="15" width="80" height="15" as="geometry" />
        </mxCell>
        <mxCell id="AYtACJ_0qeJwEH7vG1DV-62" value="[31:0] r2" style="text;html=1;align=right;verticalAlign=middle;whiteSpace=wrap;rounded=0;fontFamily=Lucida Console;fontSize=8;" parent="AYtACJ_0qeJwEH7vG1DV-66" vertex="1">
          <mxGeometry x="50" y="30" width="80" height="15" as="geometry" />
        </mxCell>
        <mxCell id="AYtACJ_0qeJwEH7vG1DV-63" value="[31:0] imm" style="text;html=1;align=right;verticalAlign=middle;whiteSpace=wrap;rounded=0;fontFamily=Lucida Console;fontSize=8;" parent="AYtACJ_0qeJwEH7vG1DV-66" vertex="1">
          <mxGeometry x="50" y="45" width="80" height="15" as="geometry" />
        </mxCell>
        <mxCell id="AYtACJ_0qeJwEH7vG1DV-64" value="ALU_func" style="text;html=1;align=left;verticalAlign=middle;whiteSpace=wrap;rounded=0;fontFamily=Lucida Console;fontSize=8;" parent="AYtACJ_0qeJwEH7vG1DV-66" vertex="1">
          <mxGeometry y="17" width="80" height="15" as="geometry" />
        </mxCell>
        <mxCell id="AYtACJ_0qeJwEH7vG1DV-65" value="&amp;nbsp;[31:0] rout" style="text;html=1;align=right;verticalAlign=middle;whiteSpace=wrap;rounded=0;fontFamily=Lucida Console;fontSize=8;" parent="AYtACJ_0qeJwEH7vG1DV-66" vertex="1">
          <mxGeometry x="50" y="80" width="80" height="15" as="geometry" />
        </mxCell>
        <mxCell id="AYtACJ_0qeJwEH7vG1DV-69" value="" style="group" parent="1" vertex="1" connectable="0">
          <mxGeometry x="360" y="300" width="97" height="130" as="geometry" />
        </mxCell>
        <mxCell id="TXkxL3hwGatlC5A8vi9H-132" value="&lt;font style=&quot;font-size: 12px;&quot;&gt;IMem&lt;/font&gt;" style="rounded=1;whiteSpace=wrap;html=1;fillColor=#1ba1e2;strokeColor=#006EAF;fontFamily=Lucida Console;fontSize=8;fontColor=#ffffff;" parent="AYtACJ_0qeJwEH7vG1DV-69" vertex="1">
          <mxGeometry width="97" height="80" as="geometry" />
        </mxCell>
        <mxCell id="AYtACJ_0qeJwEH7vG1DV-67" value="[31:0] addr" style="text;html=1;align=left;verticalAlign=middle;whiteSpace=wrap;rounded=0;fontFamily=Lucida Console;fontSize=8;" parent="AYtACJ_0qeJwEH7vG1DV-69" vertex="1">
          <mxGeometry y="55" width="80" height="15" as="geometry" />
        </mxCell>
        <mxCell id="AYtACJ_0qeJwEH7vG1DV-68" value="[31:0] data" style="text;html=1;align=right;verticalAlign=middle;whiteSpace=wrap;rounded=0;fontFamily=Lucida Console;fontSize=8;" parent="AYtACJ_0qeJwEH7vG1DV-69" vertex="1">
          <mxGeometry x="17" y="15" width="80" height="15" as="geometry" />
        </mxCell>
        <mxCell id="AYtACJ_0qeJwEH7vG1DV-72" style="edgeStyle=orthogonalEdgeStyle;rounded=0;orthogonalLoop=1;jettySize=auto;html=1;exitX=1;exitY=0.5;exitDx=0;exitDy=0;entryX=0;entryY=0.75;entryDx=0;entryDy=0;" parent="1" source="TXkxL3hwGatlC5A8vi9H-126" target="TXkxL3hwGatlC5A8vi9H-101" edge="1">
          <mxGeometry relative="1" as="geometry" />
        </mxCell>
        <mxCell id="AYtACJ_0qeJwEH7vG1DV-77" style="edgeStyle=orthogonalEdgeStyle;rounded=0;orthogonalLoop=1;jettySize=auto;html=1;exitX=1;exitY=0.5;exitDx=0;exitDy=0;entryX=0;entryY=0.5;entryDx=0;entryDy=0;fillColor=#1ba1e2;strokeColor=#006EAF;" parent="1" source="AYtACJ_0qeJwEH7vG1DV-19" target="AYtACJ_0qeJwEH7vG1DV-67" edge="1">
          <mxGeometry relative="1" as="geometry" />
        </mxCell>
        <mxCell id="AYtACJ_0qeJwEH7vG1DV-78" style="edgeStyle=orthogonalEdgeStyle;rounded=0;orthogonalLoop=1;jettySize=auto;html=1;exitX=1;exitY=0.5;exitDx=0;exitDy=0;entryX=0;entryY=0.5;entryDx=0;entryDy=0;fillColor=#a20025;strokeColor=#6F0000;" parent="1" source="AYtACJ_0qeJwEH7vG1DV-68" target="AYtACJ_0qeJwEH7vG1DV-31" edge="1">
          <mxGeometry relative="1" as="geometry" />
        </mxCell>
        <mxCell id="AYtACJ_0qeJwEH7vG1DV-83" style="edgeStyle=orthogonalEdgeStyle;rounded=0;orthogonalLoop=1;jettySize=auto;html=1;exitX=1;exitY=0.5;exitDx=0;exitDy=0;entryX=0;entryY=0.5;entryDx=0;entryDy=0;fillColor=#1ba1e2;strokeColor=#006EAF;" parent="1" source="AYtACJ_0qeJwEH7vG1DV-39" target="AYtACJ_0qeJwEH7vG1DV-45" edge="1">
          <mxGeometry relative="1" as="geometry" />
        </mxCell>
        <mxCell id="AYtACJ_0qeJwEH7vG1DV-93" value="wr_en[0]" style="edgeLabel;html=1;align=center;verticalAlign=middle;resizable=0;points=[];" parent="AYtACJ_0qeJwEH7vG1DV-83" vertex="1" connectable="0">
          <mxGeometry x="0.6545" relative="1" as="geometry">
            <mxPoint x="-15" y="-1" as="offset" />
          </mxGeometry>
        </mxCell>
        <mxCell id="AYtACJ_0qeJwEH7vG1DV-84" style="edgeStyle=orthogonalEdgeStyle;rounded=0;orthogonalLoop=1;jettySize=auto;html=1;exitX=1;exitY=0.5;exitDx=0;exitDy=0;entryX=0;entryY=0.5;entryDx=0;entryDy=0;fillColor=#1ba1e2;strokeColor=#006EAF;" parent="1" source="AYtACJ_0qeJwEH7vG1DV-32" target="AYtACJ_0qeJwEH7vG1DV-46" edge="1">
          <mxGeometry relative="1" as="geometry" />
        </mxCell>
        <mxCell id="AYtACJ_0qeJwEH7vG1DV-85" style="edgeStyle=orthogonalEdgeStyle;rounded=0;orthogonalLoop=1;jettySize=auto;html=1;exitX=1;exitY=0.5;exitDx=0;exitDy=0;entryX=0;entryY=0.5;entryDx=0;entryDy=0;fillColor=#1ba1e2;strokeColor=#006EAF;" parent="1" source="AYtACJ_0qeJwEH7vG1DV-37" target="AYtACJ_0qeJwEH7vG1DV-48" edge="1">
          <mxGeometry relative="1" as="geometry" />
        </mxCell>
        <mxCell id="AYtACJ_0qeJwEH7vG1DV-86" style="edgeStyle=orthogonalEdgeStyle;rounded=0;orthogonalLoop=1;jettySize=auto;html=1;exitX=1;exitY=0.5;exitDx=0;exitDy=0;entryX=0;entryY=0.5;entryDx=0;entryDy=0;fillColor=#1ba1e2;strokeColor=#006EAF;" parent="1" source="AYtACJ_0qeJwEH7vG1DV-33" target="AYtACJ_0qeJwEH7vG1DV-49" edge="1">
          <mxGeometry relative="1" as="geometry" />
        </mxCell>
        <mxCell id="AYtACJ_0qeJwEH7vG1DV-87" style="edgeStyle=orthogonalEdgeStyle;rounded=0;orthogonalLoop=1;jettySize=auto;html=1;exitX=1;exitY=0.5;exitDx=0;exitDy=0;entryX=0;entryY=0.5;entryDx=0;entryDy=0;fillColor=#1ba1e2;strokeColor=#006EAF;" parent="1" source="AYtACJ_0qeJwEH7vG1DV-38" target="AYtACJ_0qeJwEH7vG1DV-55" edge="1">
          <mxGeometry relative="1" as="geometry" />
        </mxCell>
        <mxCell id="AYtACJ_0qeJwEH7vG1DV-88" style="edgeStyle=orthogonalEdgeStyle;rounded=0;orthogonalLoop=1;jettySize=auto;html=1;exitX=1;exitY=0.5;exitDx=0;exitDy=0;entryX=0;entryY=0.5;entryDx=0;entryDy=0;fillColor=#1ba1e2;strokeColor=#006EAF;" parent="1" source="AYtACJ_0qeJwEH7vG1DV-34" target="AYtACJ_0qeJwEH7vG1DV-56" edge="1">
          <mxGeometry relative="1" as="geometry" />
        </mxCell>
        <mxCell id="AYtACJ_0qeJwEH7vG1DV-92" style="edgeStyle=orthogonalEdgeStyle;rounded=0;orthogonalLoop=1;jettySize=auto;html=1;exitX=1;exitY=0.5;exitDx=0;exitDy=0;entryX=0;entryY=0.5;entryDx=0;entryDy=0;" parent="1" source="AYtACJ_0qeJwEH7vG1DV-89" target="AYtACJ_0qeJwEH7vG1DV-44" edge="1">
          <mxGeometry relative="1" as="geometry" />
        </mxCell>
        <mxCell id="AYtACJ_0qeJwEH7vG1DV-89" value="rst" style="triangle;whiteSpace=wrap;html=1;fillColor=#f5f5f5;fontColor=#333333;strokeColor=#666666;fontFamily=Lucida Console;fontSize=8;rotation=90;" parent="1" vertex="1">
          <mxGeometry x="660" y="140" width="40" height="40" as="geometry" />
        </mxCell>
        <mxCell id="AYtACJ_0qeJwEH7vG1DV-91" style="edgeStyle=orthogonalEdgeStyle;rounded=0;orthogonalLoop=1;jettySize=auto;html=1;exitX=1;exitY=0.5;exitDx=0;exitDy=0;entryX=0;entryY=0.5;entryDx=0;entryDy=0;" parent="1" source="AYtACJ_0qeJwEH7vG1DV-90" target="AYtACJ_0qeJwEH7vG1DV-43" edge="1">
          <mxGeometry relative="1" as="geometry" />
        </mxCell>
        <mxCell id="AYtACJ_0qeJwEH7vG1DV-90" value="clk" style="triangle;whiteSpace=wrap;html=1;fillColor=#f5f5f5;fontColor=#333333;strokeColor=#666666;fontFamily=Lucida Console;fontSize=8;rotation=90;" parent="1" vertex="1">
          <mxGeometry x="710" y="140" width="40" height="40" as="geometry" />
        </mxCell>
        <mxCell id="AYtACJ_0qeJwEH7vG1DV-103" value="" style="group" parent="1" vertex="1" connectable="0">
          <mxGeometry x="913.17" y="460" width="96.83" height="100" as="geometry" />
        </mxCell>
        <mxCell id="AYtACJ_0qeJwEH7vG1DV-95" value="8x1" style="shape=trapezoid;perimeter=trapezoidPerimeter;whiteSpace=wrap;html=1;fixedSize=1;rotation=90;" parent="AYtACJ_0qeJwEH7vG1DV-103" vertex="1">
          <mxGeometry x="-37.06" y="28.02" width="121.92" height="34.25" as="geometry" />
        </mxCell>
        <mxCell id="AYtACJ_0qeJwEH7vG1DV-98" value="000" style="text;html=1;align=left;verticalAlign=middle;whiteSpace=wrap;rounded=0;fontFamily=Lucida Console;fontSize=8;" parent="AYtACJ_0qeJwEH7vG1DV-103" vertex="1">
          <mxGeometry x="7.188575" y="-0.0010178817055326306" width="15.691232398677501" height="9.170105456212752" as="geometry" />
        </mxCell>
        <mxCell id="AYtACJ_0qeJwEH7vG1DV-99" value="001" style="text;html=1;align=left;verticalAlign=middle;whiteSpace=wrap;rounded=0;fontFamily=Lucida Console;fontSize=8;" parent="AYtACJ_0qeJwEH7vG1DV-103" vertex="1">
          <mxGeometry x="7.19" y="9.169193030719974" width="15.691232398677501" height="9.170105456212752" as="geometry" />
        </mxCell>
        <mxCell id="AYtACJ_0qeJwEH7vG1DV-100" value="010" style="text;html=1;align=left;verticalAlign=middle;whiteSpace=wrap;rounded=0;fontFamily=Lucida Console;fontSize=8;" parent="AYtACJ_0qeJwEH7vG1DV-103" vertex="1">
          <mxGeometry x="7.19" y="18.339403943145477" width="15.691232398677501" height="9.170105456212752" as="geometry" />
        </mxCell>
        <mxCell id="AYtACJ_0qeJwEH7vG1DV-101" value="0&lt;span style=&quot;background-color: transparent; color: light-dark(rgb(0, 0, 0), rgb(255, 255, 255));&quot;&gt;11&lt;/span&gt;" style="text;html=1;align=left;verticalAlign=middle;whiteSpace=wrap;rounded=0;fontFamily=Lucida Console;fontSize=8;" parent="AYtACJ_0qeJwEH7vG1DV-103" vertex="1">
          <mxGeometry x="7.19" y="27.513058230169776" width="15.691232398677501" height="9.170105456212752" as="geometry" />
        </mxCell>
        <mxCell id="X0HWTZEBOyA-l1fYGfc3-25" value="0&lt;span style=&quot;background-color: transparent; color: light-dark(rgb(0, 0, 0), rgb(255, 255, 255));&quot;&gt;11&lt;/span&gt;" style="text;html=1;align=left;verticalAlign=middle;whiteSpace=wrap;rounded=0;fontFamily=Lucida Console;fontSize=8;" parent="AYtACJ_0qeJwEH7vG1DV-103" vertex="1">
          <mxGeometry x="7.190000000000055" y="36.68305823016982" width="15.691232398677501" height="9.170105456212752" as="geometry" />
        </mxCell>
        <mxCell id="AYtACJ_0qeJwEH7vG1DV-104" style="edgeStyle=orthogonalEdgeStyle;rounded=0;orthogonalLoop=1;jettySize=auto;html=1;exitX=1;exitY=0.5;exitDx=0;exitDy=0;fillColor=#1ba1e2;strokeColor=#006EAF;entryX=1;entryY=0.5;entryDx=0;entryDy=0;" parent="1" source="AYtACJ_0qeJwEH7vG1DV-39" target="AYtACJ_0qeJwEH7vG1DV-95" edge="1">
          <mxGeometry relative="1" as="geometry">
            <Array as="points">
              <mxPoint x="680" y="257" />
              <mxPoint x="680" y="570" />
              <mxPoint x="937" y="570" />
            </Array>
            <mxPoint x="970" y="560" as="targetPoint" />
          </mxGeometry>
        </mxCell>
        <mxCell id="yGG8KzgK5g1DTIh6UFr6-12" value="wr_en[3:1]" style="edgeLabel;html=1;align=center;verticalAlign=middle;resizable=0;points=[];" parent="AYtACJ_0qeJwEH7vG1DV-104" vertex="1" connectable="0">
          <mxGeometry x="0.8351" y="1" relative="1" as="geometry">
            <mxPoint x="-17" y="1" as="offset" />
          </mxGeometry>
        </mxCell>
        <mxCell id="yGG8KzgK5g1DTIh6UFr6-4" style="edgeStyle=orthogonalEdgeStyle;rounded=0;orthogonalLoop=1;jettySize=auto;html=1;exitX=0.5;exitY=0;exitDx=0;exitDy=0;entryX=1;entryY=0.5;entryDx=0;entryDy=0;" parent="1" source="AYtACJ_0qeJwEH7vG1DV-95" target="AYtACJ_0qeJwEH7vG1DV-47" edge="1">
          <mxGeometry relative="1" as="geometry" />
        </mxCell>
        <mxCell id="yGG8KzgK5g1DTIh6UFr6-5" style="edgeStyle=orthogonalEdgeStyle;rounded=0;orthogonalLoop=1;jettySize=auto;html=1;exitX=1;exitY=0.5;exitDx=0;exitDy=0;entryX=0;entryY=0.5;entryDx=0;entryDy=0;fillColor=#1ba1e2;strokeColor=#006EAF;" parent="1" source="AYtACJ_0qeJwEH7vG1DV-19" target="AYtACJ_0qeJwEH7vG1DV-100" edge="1">
          <mxGeometry relative="1" as="geometry">
            <Array as="points">
              <mxPoint x="340" y="475" />
              <mxPoint x="340" y="483" />
            </Array>
          </mxGeometry>
        </mxCell>
        <mxCell id="yGG8KzgK5g1DTIh6UFr6-6" style="edgeStyle=orthogonalEdgeStyle;rounded=0;orthogonalLoop=1;jettySize=auto;html=1;exitX=1;exitY=0.5;exitDx=0;exitDy=0;entryX=0;entryY=0.5;entryDx=0;entryDy=0;fillColor=#1ba1e2;strokeColor=#006EAF;" parent="1" source="AYtACJ_0qeJwEH7vG1DV-35" target="AYtACJ_0qeJwEH7vG1DV-101" edge="1">
          <mxGeometry relative="1" as="geometry">
            <mxPoint x="890" y="514" as="targetPoint" />
            <Array as="points">
              <mxPoint x="660" y="417" />
              <mxPoint x="660" y="492" />
            </Array>
          </mxGeometry>
        </mxCell>
        <mxCell id="yGG8KzgK5g1DTIh6UFr6-7" style="edgeStyle=orthogonalEdgeStyle;rounded=0;orthogonalLoop=1;jettySize=auto;html=1;exitX=0;exitY=0.5;exitDx=0;exitDy=0;entryX=1;entryY=0.5;entryDx=0;entryDy=0;fillColor=#d80073;strokeColor=#A50040;" parent="1" source="AYtACJ_0qeJwEH7vG1DV-50" target="AYtACJ_0qeJwEH7vG1DV-59" edge="1">
          <mxGeometry relative="1" as="geometry">
            <mxPoint x="710" y="550" as="targetPoint" />
            <Array as="points">
              <mxPoint x="700" y="418" />
              <mxPoint x="700" y="582" />
            </Array>
          </mxGeometry>
        </mxCell>
        <mxCell id="yGG8KzgK5g1DTIh6UFr6-8" style="edgeStyle=orthogonalEdgeStyle;rounded=0;orthogonalLoop=1;jettySize=auto;html=1;exitX=0;exitY=0.5;exitDx=0;exitDy=0;entryX=1;entryY=0.5;entryDx=0;entryDy=0;fillColor=#d80073;strokeColor=#A50040;" parent="1" source="AYtACJ_0qeJwEH7vG1DV-57" target="AYtACJ_0qeJwEH7vG1DV-62" edge="1">
          <mxGeometry relative="1" as="geometry">
            <Array as="points">
              <mxPoint x="720" y="432" />
              <mxPoint x="720" y="598" />
            </Array>
          </mxGeometry>
        </mxCell>
        <mxCell id="yGG8KzgK5g1DTIh6UFr6-9" style="edgeStyle=orthogonalEdgeStyle;rounded=0;orthogonalLoop=1;jettySize=auto;html=1;exitX=1;exitY=0.5;exitDx=0;exitDy=0;entryX=1;entryY=0.5;entryDx=0;entryDy=0;fillColor=#d80073;strokeColor=#A50040;" parent="1" source="AYtACJ_0qeJwEH7vG1DV-35" target="AYtACJ_0qeJwEH7vG1DV-63" edge="1">
          <mxGeometry relative="1" as="geometry">
            <Array as="points">
              <mxPoint x="660" y="418" />
              <mxPoint x="660" y="612" />
            </Array>
          </mxGeometry>
        </mxCell>
        <mxCell id="yGG8KzgK5g1DTIh6UFr6-10" style="edgeStyle=orthogonalEdgeStyle;rounded=0;orthogonalLoop=1;jettySize=auto;html=1;exitX=1;exitY=0.5;exitDx=0;exitDy=0;entryX=0;entryY=0.5;entryDx=0;entryDy=0;fillColor=#1ba1e2;strokeColor=#006EAF;" parent="1" source="AYtACJ_0qeJwEH7vG1DV-65" target="AYtACJ_0qeJwEH7vG1DV-99" edge="1">
          <mxGeometry relative="1" as="geometry">
            <Array as="points">
              <mxPoint x="740" y="648" />
              <mxPoint x="740" y="474" />
              <mxPoint x="920" y="474" />
            </Array>
          </mxGeometry>
        </mxCell>
        <mxCell id="yGG8KzgK5g1DTIh6UFr6-11" style="edgeStyle=orthogonalEdgeStyle;rounded=0;orthogonalLoop=1;jettySize=auto;html=1;exitX=0;exitY=0.5;exitDx=0;exitDy=0;entryX=0;entryY=0.5;entryDx=0;entryDy=0;fillColor=#d80073;strokeColor=#A50040;" parent="1" source="AYtACJ_0qeJwEH7vG1DV-40" target="AYtACJ_0qeJwEH7vG1DV-64" edge="1">
          <mxGeometry relative="1" as="geometry" />
        </mxCell>
        <mxCell id="5aRdYV2EvntM1UR4NR_0-9" value="" style="group;flipV=0;flipH=1;" parent="1" vertex="1" connectable="0">
          <mxGeometry x="860" y="660" width="97" height="130" as="geometry" />
        </mxCell>
        <mxCell id="AYtACJ_0qeJwEH7vG1DV-1" value="&lt;font style=&quot;font-size: 12px;&quot;&gt;DMem&lt;/font&gt;" style="rounded=1;whiteSpace=wrap;html=1;fillColor=#60a917;strokeColor=#2D7600;fontFamily=Lucida Console;fontSize=8;fontColor=#ffffff;" parent="5aRdYV2EvntM1UR4NR_0-9" vertex="1">
          <mxGeometry width="97" height="130" as="geometry" />
        </mxCell>
        <mxCell id="5aRdYV2EvntM1UR4NR_0-1" value="wr_en" style="text;html=1;align=left;verticalAlign=middle;whiteSpace=wrap;rounded=0;fontFamily=Lucida Console;fontSize=8;" parent="5aRdYV2EvntM1UR4NR_0-9" vertex="1">
          <mxGeometry y="30" width="47" height="15" as="geometry" />
        </mxCell>
        <mxCell id="5aRdYV2EvntM1UR4NR_0-3" value="wr_data" style="text;html=1;align=left;verticalAlign=middle;whiteSpace=wrap;rounded=0;fontFamily=Lucida Console;fontSize=8;" parent="5aRdYV2EvntM1UR4NR_0-9" vertex="1">
          <mxGeometry y="45" width="80" height="15" as="geometry" />
        </mxCell>
        <mxCell id="5aRdYV2EvntM1UR4NR_0-4" value="rd_en" style="text;html=1;align=left;verticalAlign=middle;whiteSpace=wrap;rounded=0;fontFamily=Lucida Console;fontSize=8;" parent="5aRdYV2EvntM1UR4NR_0-9" vertex="1">
          <mxGeometry y="75" width="80" height="15" as="geometry" />
        </mxCell>
        <mxCell id="5aRdYV2EvntM1UR4NR_0-6" value="rd_data" style="text;html=1;align=left;verticalAlign=middle;whiteSpace=wrap;rounded=0;fontFamily=Lucida Console;fontSize=8;" parent="5aRdYV2EvntM1UR4NR_0-9" vertex="1">
          <mxGeometry y="90" width="80" height="15" as="geometry" />
        </mxCell>
        <mxCell id="5aRdYV2EvntM1UR4NR_0-7" value="clk" style="text;html=1;align=right;verticalAlign=middle;whiteSpace=wrap;rounded=0;fontFamily=Lucida Console;fontSize=8;" parent="5aRdYV2EvntM1UR4NR_0-9" vertex="1">
          <mxGeometry x="50" y="15" width="47" height="15" as="geometry" />
        </mxCell>
        <mxCell id="5aRdYV2EvntM1UR4NR_0-8" value="data_rst" style="text;html=1;align=right;verticalAlign=middle;whiteSpace=wrap;rounded=0;fontFamily=Lucida Console;fontSize=8;" parent="5aRdYV2EvntM1UR4NR_0-9" vertex="1">
          <mxGeometry x="50" y="30" width="47" height="15" as="geometry" />
        </mxCell>
        <mxCell id="X0HWTZEBOyA-l1fYGfc3-6" value="rst" style="text;html=1;align=right;verticalAlign=middle;whiteSpace=wrap;rounded=0;fontFamily=Lucida Console;fontSize=8;" parent="5aRdYV2EvntM1UR4NR_0-9" vertex="1">
          <mxGeometry x="50" y="45" width="47" height="15" as="geometry" />
        </mxCell>
        <mxCell id="5aRdYV2EvntM1UR4NR_0-2" value="addr" style="text;html=1;align=left;verticalAlign=middle;whiteSpace=wrap;rounded=0;fontFamily=Lucida Console;fontSize=8;" parent="5aRdYV2EvntM1UR4NR_0-9" vertex="1">
          <mxGeometry y="15" width="47" height="15" as="geometry" />
        </mxCell>
        <mxCell id="5aRdYV2EvntM1UR4NR_0-13" style="edgeStyle=orthogonalEdgeStyle;rounded=0;orthogonalLoop=1;jettySize=auto;html=1;exitX=0;exitY=0.5;exitDx=0;exitDy=0;entryX=1;entryY=0.5;entryDx=0;entryDy=0;" parent="1" source="5aRdYV2EvntM1UR4NR_0-10" target="5aRdYV2EvntM1UR4NR_0-7" edge="1">
          <mxGeometry relative="1" as="geometry" />
        </mxCell>
        <mxCell id="5aRdYV2EvntM1UR4NR_0-10" value="clk" style="triangle;whiteSpace=wrap;html=1;fillColor=#f5f5f5;fontColor=#333333;strokeColor=#666666;fontFamily=Lucida Console;fontSize=8;rotation=0;flipV=0;flipH=1;" parent="1" vertex="1">
          <mxGeometry x="1030" y="640" width="40" height="40" as="geometry" />
        </mxCell>
        <mxCell id="5aRdYV2EvntM1UR4NR_0-12" style="edgeStyle=orthogonalEdgeStyle;rounded=0;orthogonalLoop=1;jettySize=auto;html=1;exitX=0;exitY=0.5;exitDx=0;exitDy=0;entryX=1;entryY=0.5;entryDx=0;entryDy=0;" parent="1" source="5aRdYV2EvntM1UR4NR_0-11" target="5aRdYV2EvntM1UR4NR_0-8" edge="1">
          <mxGeometry relative="1" as="geometry" />
        </mxCell>
        <mxCell id="5aRdYV2EvntM1UR4NR_0-11" value="data_rst" style="triangle;whiteSpace=wrap;html=1;fillColor=#f5f5f5;fontColor=#333333;strokeColor=#666666;fontFamily=Lucida Console;fontSize=8;rotation=0;flipV=0;flipH=1;" parent="1" vertex="1">
          <mxGeometry x="1030" y="700" width="40" height="40" as="geometry" />
        </mxCell>
        <mxCell id="X0HWTZEBOyA-l1fYGfc3-3" style="edgeStyle=orthogonalEdgeStyle;rounded=0;orthogonalLoop=1;jettySize=auto;html=1;exitX=1;exitY=0.5;exitDx=0;exitDy=0;entryX=0;entryY=0.5;entryDx=0;entryDy=0;fillColor=#d5e8d4;strokeColor=#82b366;" parent="1" source="X0HWTZEBOyA-l1fYGfc3-1" target="5aRdYV2EvntM1UR4NR_0-1" edge="1">
          <mxGeometry relative="1" as="geometry">
            <Array as="points">
              <mxPoint x="730" y="288" />
              <mxPoint x="730" y="698" />
              <mxPoint x="860" y="698" />
            </Array>
          </mxGeometry>
        </mxCell>
        <mxCell id="X0HWTZEBOyA-l1fYGfc3-4" style="edgeStyle=orthogonalEdgeStyle;rounded=0;orthogonalLoop=1;jettySize=auto;html=1;exitX=0;exitY=0.5;exitDx=0;exitDy=0;entryX=0;entryY=0.5;entryDx=0;entryDy=0;fillColor=#d5e8d4;strokeColor=#82b366;" parent="1" source="AYtACJ_0qeJwEH7vG1DV-57" target="5aRdYV2EvntM1UR4NR_0-3" edge="1">
          <mxGeometry relative="1" as="geometry">
            <Array as="points">
              <mxPoint x="720" y="433" />
              <mxPoint x="720" y="712" />
            </Array>
          </mxGeometry>
        </mxCell>
        <mxCell id="X0HWTZEBOyA-l1fYGfc3-8" style="edgeStyle=orthogonalEdgeStyle;rounded=0;orthogonalLoop=1;jettySize=auto;html=1;exitX=0;exitY=0.5;exitDx=0;exitDy=0;entryX=1;entryY=0.5;entryDx=0;entryDy=0;" parent="1" source="X0HWTZEBOyA-l1fYGfc3-7" target="X0HWTZEBOyA-l1fYGfc3-6" edge="1">
          <mxGeometry relative="1" as="geometry">
            <Array as="points">
              <mxPoint x="980" y="770" />
              <mxPoint x="980" y="712" />
            </Array>
          </mxGeometry>
        </mxCell>
        <mxCell id="X0HWTZEBOyA-l1fYGfc3-7" value="rst" style="triangle;whiteSpace=wrap;html=1;fillColor=#f5f5f5;fontColor=#333333;strokeColor=#666666;fontFamily=Lucida Console;fontSize=8;rotation=0;flipV=0;flipH=1;" parent="1" vertex="1">
          <mxGeometry x="1030" y="750" width="40" height="40" as="geometry" />
        </mxCell>
        <mxCell id="X0HWTZEBOyA-l1fYGfc3-22" style="edgeStyle=orthogonalEdgeStyle;rounded=0;orthogonalLoop=1;jettySize=auto;html=1;exitX=1;exitY=0.5;exitDx=0;exitDy=0;entryX=0;entryY=0.5;entryDx=0;entryDy=0;fillColor=#d5e8d4;strokeColor=#82b366;" parent="1" source="X0HWTZEBOyA-l1fYGfc3-2" target="5aRdYV2EvntM1UR4NR_0-4" edge="1">
          <mxGeometry relative="1" as="geometry">
            <Array as="points">
              <mxPoint x="710" y="302" />
              <mxPoint x="710" y="742" />
            </Array>
          </mxGeometry>
        </mxCell>
        <mxCell id="X0HWTZEBOyA-l1fYGfc3-24" style="edgeStyle=orthogonalEdgeStyle;rounded=0;orthogonalLoop=1;jettySize=auto;html=1;exitX=1;exitY=0.5;exitDx=0;exitDy=0;entryX=0;entryY=0.5;entryDx=0;entryDy=0;fillColor=#d5e8d4;strokeColor=#82b366;" parent="1" source="AYtACJ_0qeJwEH7vG1DV-65" target="5aRdYV2EvntM1UR4NR_0-2" edge="1">
          <mxGeometry relative="1" as="geometry">
            <Array as="points">
              <mxPoint x="740" y="648" />
              <mxPoint x="740" y="683" />
            </Array>
          </mxGeometry>
        </mxCell>
        <mxCell id="X0HWTZEBOyA-l1fYGfc3-26" style="edgeStyle=orthogonalEdgeStyle;rounded=0;orthogonalLoop=1;jettySize=auto;html=1;exitX=0;exitY=0.5;exitDx=0;exitDy=0;entryX=0;entryY=0.5;entryDx=0;entryDy=0;fillColor=#1ba1e2;strokeColor=#006EAF;" parent="1" source="5aRdYV2EvntM1UR4NR_0-6" target="X0HWTZEBOyA-l1fYGfc3-25" edge="1">
          <mxGeometry relative="1" as="geometry" />
        </mxCell>
      </root>
    </mxGraphModel>
  </diagram>
</mxfile>
